<svg xmlns="http://www.w3.org/2000/svg" width="20.05" height="21" viewBox="0 0 20.05 21">
  <path id="fi-rr-rocket" d="M15.037,6.125A.836.836,0,1,1,14.2,5.25.856.856,0,0,1,15.037,6.125ZM11.7,7.874a.876.876,0,1,0,.835.875A.856.856,0,0,0,11.7,7.874ZM9.189,10.5a.876.876,0,1,0,.835.875A.856.856,0,0,0,9.189,10.5ZM19.937,2.588l-.063.185c-1.255,3.647-2.459,7.114-4.838,10.194v.157a9.854,9.854,0,0,1-3.007,7.118A2.66,2.66,0,0,1,10.192,21a2.748,2.748,0,0,1-2.673-2.805V17.187A4.107,4.107,0,0,1,5.88,16.145l-.033-.033L3.932,18.118a.809.809,0,0,1-1.181,0,.9.9,0,0,1,0-1.237l1.916-2.006-.033-.033a4.4,4.4,0,0,1-1-1.717H2.809A2.881,2.881,0,0,1,0,10.183,3.051,3.051,0,0,1,.784,8.137,8.918,8.918,0,0,1,7.518,5.25h.15C10.609,2.759,13.917,1.5,17.4.184l.18-.067a1.779,1.779,0,0,1,1.934.446,1.991,1.991,0,0,1,.425,2.025ZM2.809,11.374h.616a4.506,4.506,0,0,1,.744-2.144A22.077,22.077,0,0,1,5.681,7.213,7.024,7.024,0,0,0,2,9.336a1.262,1.262,0,0,0-.334.847A1.167,1.167,0,0,0,2.809,11.374Zm10.306,3.72a21.514,21.514,0,0,1-1.881,1.539,4.045,4.045,0,0,1-2.045.766v.794a1,1,0,0,0,1.72.753,7.952,7.952,0,0,0,2.206-3.852ZM18.326,1.8a.155.155,0,0,0-.181-.042l-.18.068c-4.047,1.527-7.541,2.846-10.55,6a18.116,18.116,0,0,0-1.878,2.409,2.718,2.718,0,0,0,.278,3.369l1.246,1.3a2.422,2.422,0,0,0,3.215.292,17.581,17.581,0,0,0,2.3-1.967c3.007-3.15,4.269-6.813,5.727-11.053L18.366,2a.174.174,0,0,0-.04-.192Z" transform="translate(0 0.001)" fill="#fff"/>
</svg>
