<svg xmlns="http://www.w3.org/2000/svg" width="13.02" height="7.35" viewBox="0 0 13.02 7.35">
  <path id="arrow-down" d="M9.832,13.347a.865.865,0,0,1-.594-.241L3.668,7.858a1.1,1.1,0,0,1-.331-.712,1.146,1.146,0,0,1,.211-.768A.9.9,0,0,1,4.177,6a.859.859,0,0,1,.68.238l4.976,4.7L14.808,6.41a.9.9,0,0,1,.321-.192.827.827,0,0,1,.362-.037.853.853,0,0,1,.347.123.968.968,0,0,1,.279.264,1.093,1.093,0,0,1,.189.372,1.179,1.179,0,0,1,.042.426,1.151,1.151,0,0,1-.113.41,1.024,1.024,0,0,1-.248.324l-5.57,5.069A.849.849,0,0,1,9.832,13.347Z" transform="translate(-3.333 -5.999)" fill="#020202"/>
</svg>
