<svg xmlns="http://www.w3.org/2000/svg" width="15.82" height="15.08" viewBox="0 0 15.82 15.08">
  <path id="fi-rr-dashboard" d="M15.751,8.143A8,8,0,0,0,7.392,1,8.094,8.094,0,0,0,0,9.213,8.289,8.289,0,0,0,2.477,15.18a3.123,3.123,0,0,0,2.21.882h6.437a3.228,3.228,0,0,0,2.313-.979,8.374,8.374,0,0,0,2.314-6.941ZM12.516,14.1a1.939,1.939,0,0,1-1.391.591H4.688a1.846,1.846,0,0,1-1.306-.508A6.909,6.909,0,0,1,1.318,9.213a6.98,6.98,0,0,1,2.2-5.107A6.375,6.375,0,0,1,7.9,2.364a6.7,6.7,0,0,1,.774.045A6.647,6.647,0,0,1,14.146,7a7.034,7.034,0,0,1-1.63,7.108ZM5.145,12.148a.7.7,0,0,1,.01.969.642.642,0,0,1-.933.01A5.635,5.635,0,0,1,3.03,7.144a5.276,5.276,0,0,1,4.879-3.41,5.123,5.123,0,0,1,.753.055.7.7,0,0,1,.3,1.23.633.633,0,0,1-.491.127,3.921,3.921,0,0,0-4.1,2.248,4.229,4.229,0,0,0,.776,4.754ZM13.128,8.43a5.742,5.742,0,0,1,.053.783,5.539,5.539,0,0,1-1.587,3.915.642.642,0,0,1-.933-.011.7.7,0,0,1,.011-.97,4.194,4.194,0,0,0,1.149-3.521.682.682,0,0,1,.559-.776.664.664,0,0,1,.747.58Zm-3.95.432a1.416,1.416,0,0,1-.615,1.576A1.3,1.3,0,0,1,6.94,10.22a1.434,1.434,0,0,1-.21-1.686,1.319,1.319,0,0,1,1.516-.64L10.738,5.3a.641.641,0,0,1,.932,0,.7.7,0,0,1,0,.969Z" transform="translate(0 -0.982)" fill="#fff"/>
</svg>
