<svg xmlns="http://www.w3.org/2000/svg" width="20" height="15" viewBox="0 0 20 15">
  <g id="surface1" transform="translate(0 -2.499)">
    <path id="Path_9548" data-name="Path 9548" d="M16.93,3.742A16.689,16.689,0,0,0,12.859,2.5a.058.058,0,0,0-.035.008.049.049,0,0,0-.031.023c-.172.309-.367.707-.5,1.027a15.477,15.477,0,0,0-4.574,0A10.093,10.093,0,0,0,7.2,2.531.062.062,0,0,0,7.172,2.5a.055.055,0,0,0-.035,0A16.771,16.771,0,0,0,3.063,3.742a.046.046,0,0,0-.023.023,16.414,16.414,0,0,0-2.957,11.2.056.056,0,0,0,.008.023.047.047,0,0,0,.02.02A16.6,16.6,0,0,0,5.1,17.5a.067.067,0,0,0,.039,0,.085.085,0,0,0,.031-.02A11.47,11.47,0,0,0,6.2,15.84a.062.062,0,0,0-.035-.086A10.908,10.908,0,0,1,4.6,15.02.04.04,0,0,1,4.578,15a.074.074,0,0,1-.008-.031.034.034,0,0,1,0-.027.04.04,0,0,1,.02-.023c.105-.078.211-.16.309-.242.012,0,.02-.012.031-.012a.108.108,0,0,1,.035,0,11.985,11.985,0,0,0,10.051,0,.108.108,0,0,1,.035,0,.052.052,0,0,1,.031.012c.1.082.2.164.309.242a.04.04,0,0,1,.02.023.072.072,0,0,1,.008.027A.044.044,0,0,1,15.41,15a.047.047,0,0,1-.02.02,9.814,9.814,0,0,1-1.562.73.039.039,0,0,0-.02.016.082.082,0,0,0-.016.023.05.05,0,0,0,0,.023.033.033,0,0,0,.008.027,12.553,12.553,0,0,0,1.02,1.633.061.061,0,0,0,.031.023.067.067,0,0,0,.039,0,16.594,16.594,0,0,0,5-2.484.047.047,0,0,0,.02-.02.056.056,0,0,0,.008-.023,16.305,16.305,0,0,0-2.957-11.2C16.949,3.758,16.941,3.746,16.93,3.742ZM6.684,12.73a1.9,1.9,0,0,1-1.8-1.98,1.894,1.894,0,0,1,1.8-1.984,1.884,1.884,0,0,1,1.8,1.984A1.893,1.893,0,0,1,6.684,12.73Zm6.645,0a1.9,1.9,0,0,1-1.8-1.98,1.894,1.894,0,0,1,1.8-1.984,1.884,1.884,0,0,1,1.8,1.984A1.885,1.885,0,0,1,13.328,12.73Zm0,0" fill="#fff"/>
  </g>
</svg>
