<svg id="fi-rr-comment-alt" xmlns="http://www.w3.org/2000/svg" width="16.722" height="16.25" viewBox="0 0 16.722 16.25">
  <path id="Path_9553" data-name="Path 9553" d="M13.935,0H2.787A2.749,2.749,0,0,0,0,2.708v8.125a2.749,2.749,0,0,0,2.787,2.708H4.808l3.1,2.548a.712.712,0,0,0,.9,0l3.105-2.548h2.021a2.749,2.749,0,0,0,2.787-2.708V2.708A2.749,2.749,0,0,0,13.935,0Zm1.393,10.833a1.374,1.374,0,0,1-1.393,1.354H11.914a1.418,1.418,0,0,0-.9.32L8.361,14.686,5.708,12.508h0a1.418,1.418,0,0,0-.9-.32H2.787a1.374,1.374,0,0,1-1.393-1.354V2.708A1.374,1.374,0,0,1,2.787,1.354H13.935a1.374,1.374,0,0,1,1.393,1.354Z" fill="#020202"/>
  <path id="Path_9554" data-name="Path 9554" d="M6.7,6.393H10.18A.7.7,0,0,0,10.18,5H6.7a.7.7,0,0,0,0,1.393Z" transform="translate(-1.82 -1.623)" fill="#020202"/>
  <path id="Path_9555" data-name="Path 9555" d="M13.664,9H6.7a.7.7,0,0,0,0,1.393h6.967a.7.7,0,0,0,0-1.393Z" transform="translate(-1.82 -2.922)" fill="#020202"/>
  <path id="Path_9556" data-name="Path 9556" d="M13.664,13H6.7a.7.7,0,1,0,0,1.393h6.967a.7.7,0,0,0,0-1.393Z" transform="translate(-1.82 -4.221)" fill="#020202"/>
</svg>
