<svg xmlns="http://www.w3.org/2000/svg" width="17.777" height="19.766" viewBox="0 0 17.777 19.766">
  <g id="surface1" transform="translate(-0.832 -0.094)">
    <path id="Path_9552" data-name="Path 9552" d="M18.609,6.992A8.3,8.3,0,0,1,18.125,10a4.173,4.173,0,0,1-1.41,1.922,6.906,6.906,0,0,1-1.855.973,10.9,10.9,0,0,1-2.176.438,2.916,2.916,0,0,1,.883,2.363v4.164H7.129V16.852a7.345,7.345,0,0,1-1.363.141A4.191,4.191,0,0,1,4.7,16.875a3.683,3.683,0,0,1-.789-.3,2.384,2.384,0,0,1-.555-.395,3.758,3.758,0,0,1-.348-.395,1.277,1.277,0,0,1-.184-.32l-.047-.141a5.294,5.294,0,0,0-.625-1.109,2.472,2.472,0,0,0-.578-.605l-.23-.137C1,13.2.832,13,.832,12.895s.109-.18.324-.211h.277a2.347,2.347,0,0,1,1.066.371,2.092,2.092,0,0,1,.7.648l.23.277q1.248,2.18,3.75,1.066a2.612,2.612,0,0,1,.832-1.715,10.959,10.959,0,0,1-2.176-.437A6.5,6.5,0,0,1,4,11.922,4.4,4.4,0,0,1,2.594,10a7.952,7.952,0,0,1-.512-3.008A4.843,4.843,0,0,1,3.426,3.566,4.566,4.566,0,0,1,3.566.141.682.682,0,0,0,3.934.117a2.592,2.592,0,0,1,1.16.277A10.176,10.176,0,0,1,7.129,1.48a13.727,13.727,0,0,1,3.242-.461,14.174,14.174,0,0,1,3.238.461A8.669,8.669,0,0,1,15.578.418,4.479,4.479,0,0,1,16.8.094l.324.047a4.3,4.3,0,0,1,.141,3.426A4.84,4.84,0,0,1,18.609,6.992ZM2.316,13.266c.027-.078-.008-.141-.117-.187s-.176-.031-.207.047.008.141.113.184S2.285,13.34,2.316,13.266Zm.531.578c.078-.062.063-.148-.047-.254s-.2-.133-.277-.07-.062.145.047.254S2.77,13.906,2.848,13.844Zm.484.738c.094-.059.094-.16,0-.3s-.184-.176-.277-.113-.09.16,0,.3S3.242,14.645,3.332,14.582Zm.719.742c.078-.094.055-.207-.07-.348s-.23-.16-.324-.07-.066.211.07.348S3.973,15.418,4.051,15.324ZM5,15.719c.031-.109-.039-.2-.207-.254s-.27-.031-.3.09.039.211.207.254S4.969,15.824,5,15.719Zm.785.254q.281,0,.281-.187c0-.121-.094-.184-.281-.184s-.277.063-.277.184S5.6,15.973,5.785,15.973Zm1.02-.094a.587.587,0,0,0,.211-.113c.043-.047.051-.086.02-.117,0-.156-.09-.215-.277-.184a.5.5,0,0,0-.207.113.13.13,0,0,0-.023.164C6.527,15.863,6.621,15.91,6.8,15.879Zm0,0" fill="#fff"/>
  </g>
</svg>
