<svg xmlns="http://www.w3.org/2000/svg" width="18.341" height="15" viewBox="0 0 18.341 15">
  <path id="Path_9563" data-name="Path 9563" d="M4.943,10.364A3.317,3.317,0,0,1,1.687,6.989,3.317,3.317,0,0,1,4.943,3.614,3.317,3.317,0,0,1,8.2,6.989,3.32,3.32,0,0,1,4.943,10.364Zm0-5.25a1.876,1.876,0,0,0,0,3.75,1.876,1.876,0,0,0,0-3.75Zm5.426,12.75v-.375a5.528,5.528,0,0,0-5.426-5.625A5.528,5.528,0,0,0-.483,17.489v.375a.737.737,0,0,0,.723.75.737.737,0,0,0,.723-.75v-.375a4.054,4.054,0,0,1,3.979-4.125,4.053,4.053,0,0,1,3.979,4.125v.375a.724.724,0,1,0,1.447,0Zm7.489-2.519a5.159,5.159,0,0,0-5.064-5.25,4.963,4.963,0,0,0-3.376,1.337.769.769,0,0,0-.066,1.058.705.705,0,0,0,1.021.068l.01-.009a3.528,3.528,0,0,1,5.107.3,3.829,3.829,0,0,1,.921,2.5.724.724,0,1,0,1.447,0ZM13.639,9.463a2.774,2.774,0,0,1-2.693-2.85,2.774,2.774,0,0,1,2.693-2.849,2.775,2.775,0,0,1,2.693,2.849A2.777,2.777,0,0,1,13.639,9.463Zm0-4.433a1.542,1.542,0,0,0-1.5,1.583,1.5,1.5,0,1,0,2.993,0A1.542,1.542,0,0,0,13.639,5.03Z" transform="translate(0.483 -3.614)" fill="#020202"/>
</svg>
