<svg xmlns="http://www.w3.org/2000/svg" width="129.591" height="55.15" viewBox="0 0 129.591 55.15">
  <g id="Group_56" data-name="Group 56" transform="translate(-10712.881 4072.981)">
    <g id="Group_54" data-name="Group 54" transform="translate(10712.881 -4040.307)">
      <path id="Path_9603" data-name="Path 9603" d="M432,1445.729a4.763,4.763,0,0,0,2.009,1.737,6,6,0,0,0,2.522.559,5.134,5.134,0,0,0,1.48-.227,4.5,4.5,0,0,0,1.374-.68A3.712,3.712,0,0,0,440.4,1446a2.974,2.974,0,0,0,.393-1.541,2.309,2.309,0,0,0-.786-1.888,6.792,6.792,0,0,0-1.948-1.088q-1.163-.438-2.538-.846a10.314,10.314,0,0,1-2.538-1.133,6.2,6.2,0,0,1-1.948-1.949,6.064,6.064,0,0,1-.786-3.308,5.7,5.7,0,0,1,1.692-3.927,7.074,7.074,0,0,1,2.25-1.465,8.378,8.378,0,0,1,3.308-.589,11.555,11.555,0,0,1,3.353.483,5.766,5.766,0,0,1,2.81,1.964l-2.356,2.145a3.911,3.911,0,0,0-1.541-1.359,4.877,4.877,0,0,0-2.266-.514,5.492,5.492,0,0,0-2.009.317,3.606,3.606,0,0,0-1.284.816,2.878,2.878,0,0,0-.68,1.073,3.277,3.277,0,0,0-.2,1.057,2.7,2.7,0,0,0,.785,2.084,6.1,6.1,0,0,0,1.948,1.178,23.564,23.564,0,0,0,2.538.816,10.878,10.878,0,0,1,2.537,1.012,5.909,5.909,0,0,1,1.949,1.752,5.154,5.154,0,0,1,.786,3.036,6.389,6.389,0,0,1-.589,2.78,6.163,6.163,0,0,1-1.586,2.084,7.032,7.032,0,0,1-2.356,1.3,9.112,9.112,0,0,1-2.9.453,10.539,10.539,0,0,1-3.9-.725,6.4,6.4,0,0,1-2.93-2.235Z" transform="translate(-429.614 -1428.267)" fill="#fff"/>
      <path id="Path_9604" data-name="Path 9604" d="M525.75,1468.557a5.72,5.72,0,0,0-1.586-1.193,4.451,4.451,0,0,0-1.979-.408,4.375,4.375,0,0,0-1.949.408,3.968,3.968,0,0,0-1.39,1.118,5.018,5.018,0,0,0-.846,1.631,6.4,6.4,0,0,0-.287,1.918,5.347,5.347,0,0,0,.332,1.888,4.744,4.744,0,0,0,.936,1.556,4.305,4.305,0,0,0,1.45,1.042,4.618,4.618,0,0,0,1.9.378,4.349,4.349,0,0,0,1.964-.408,5.027,5.027,0,0,0,1.51-1.193l1.933,1.933a6.084,6.084,0,0,1-2.462,1.692,8.607,8.607,0,0,1-2.976.513,8.18,8.18,0,0,1-3.036-.544,7.006,7.006,0,0,1-2.372-1.526,6.731,6.731,0,0,1-1.541-2.356,8.185,8.185,0,0,1-.544-3.036,8.308,8.308,0,0,1,.544-3.051,6.808,6.808,0,0,1,3.882-3.942,8.075,8.075,0,0,1,3.066-.559,8.216,8.216,0,0,1,3.006.559,6.625,6.625,0,0,1,2.492,1.707Z" transform="translate(-497.655 -1457.137)" fill="#fff"/>
      <path id="Path_9605" data-name="Path 9605" d="M587.868,1466.382a7.567,7.567,0,0,1,2.659-1.586,9.1,9.1,0,0,1,3.021-.529,8.287,8.287,0,0,1,2.7.393,5.255,5.255,0,0,1,1.858,1.057,4.176,4.176,0,0,1,1.073,1.526,4.767,4.767,0,0,1,.347,1.8v7.31q0,.756.03,1.39t.09,1.208h-2.417q-.091-1.088-.091-2.175h-.06a5.2,5.2,0,0,1-2.145,1.963,6.764,6.764,0,0,1-2.87.574,6.588,6.588,0,0,1-1.9-.272,4.637,4.637,0,0,1-1.586-.816,3.882,3.882,0,0,1-1.072-1.344,4.639,4.639,0,0,1,.227-4.184,4.689,4.689,0,0,1,1.691-1.526,8.163,8.163,0,0,1,2.508-.846,17.41,17.41,0,0,1,3.066-.257h1.994v-.6a2.988,2.988,0,0,0-.212-1.088,2.945,2.945,0,0,0-.635-.982,3.025,3.025,0,0,0-1.057-.695,4.013,4.013,0,0,0-1.51-.257,5.564,5.564,0,0,0-1.374.151,6.051,6.051,0,0,0-1.072.378,4.687,4.687,0,0,0-.876.528q-.393.3-.755.574Zm7.673,5.679a19.014,19.014,0,0,0-1.979.106,7.764,7.764,0,0,0-1.843.408,3.548,3.548,0,0,0-1.359.846,1.909,1.909,0,0,0-.529,1.389,1.969,1.969,0,0,0,.831,1.783,4.068,4.068,0,0,0,2.251.544,4.357,4.357,0,0,0,1.9-.378,3.571,3.571,0,0,0,1.269-.982,3.813,3.813,0,0,0,.695-1.344,5.326,5.326,0,0,0,.212-1.465v-.906Z" transform="translate(-555.558 -1457.016)" fill="#fff"/>
      <path id="Path_9606" data-name="Path 9606" d="M668.413,1464.63h2.719v2.2h.06a4.01,4.01,0,0,1,1.782-1.858,5.9,5.9,0,0,1,2.931-.71,6.217,6.217,0,0,1,1.979.318,4.467,4.467,0,0,1,1.661.982,4.739,4.739,0,0,1,1.133,1.707,6.532,6.532,0,0,1,.423,2.462v9.214h-2.719v-8.459a4.777,4.777,0,0,0-.272-1.707,3.121,3.121,0,0,0-.725-1.148,2.728,2.728,0,0,0-1.042-.635,3.85,3.85,0,0,0-1.224-.2,4.439,4.439,0,0,0-1.571.272,3.274,3.274,0,0,0-1.269.861,4.055,4.055,0,0,0-.846,1.5,6.8,6.8,0,0,0-.3,2.145v7.371h-2.719Z" transform="translate(-620.57 -1457.016)" fill="#fff"/>
      <path id="Path_9607" data-name="Path 9607" d="M752.863,1430.968h7.462a13.84,13.84,0,0,1,3.973.513,10.6,10.6,0,0,1,2.96,1.375,8.729,8.729,0,0,1,2.085,1.979,10.621,10.621,0,0,1,1.314,2.3,11.63,11.63,0,0,1,.695,2.356,12.408,12.408,0,0,1,.211,2.175,10.755,10.755,0,0,1-.755,3.973,10.042,10.042,0,0,1-2.235,3.414,11.009,11.009,0,0,1-3.671,2.4,13.156,13.156,0,0,1-5.06.906h-6.978Zm2.9,18.67h3.655a11.984,11.984,0,0,0,3.489-.5,8.455,8.455,0,0,0,2.885-1.5,7.154,7.154,0,0,0,1.964-2.492,7.911,7.911,0,0,0,.725-3.489,10.43,10.43,0,0,0-.332-2.4,7.2,7.2,0,0,0-1.254-2.613,7.434,7.434,0,0,0-2.553-2.1,9.046,9.046,0,0,0-4.229-.861h-4.35Z" transform="translate(-688.119 -1430.424)" fill="#fff"/>
      <path id="Path_9608" data-name="Path 9608" d="M862.338,1430.968h2.628l9.154,21.388h-3.383l-2.145-5.287H858.411l-2.115,5.287h-3.383Zm5.2,13.564-3.988-9.818h-.06l-4.048,9.818Z" transform="translate(-768.141 -1430.424)" fill="#fff"/>
      <path id="Path_9609" data-name="Path 9609" d="M976.56,1450.743a11.528,11.528,0,0,1-4.5-.861,10.475,10.475,0,0,1-3.52-2.372,10.941,10.941,0,0,1-2.3-3.564,12.283,12.283,0,0,1,0-8.882,10.951,10.951,0,0,1,2.3-3.564,10.474,10.474,0,0,1,3.52-2.372,12.2,12.2,0,0,1,9,0,10.481,10.481,0,0,1,3.519,2.372,10.972,10.972,0,0,1,2.3,3.564,12.285,12.285,0,0,1,0,8.882,10.962,10.962,0,0,1-2.3,3.564,10.483,10.483,0,0,1-3.519,2.372A11.529,11.529,0,0,1,976.56,1450.743Zm0-2.719a7.773,7.773,0,0,0,5.861-2.507,8.059,8.059,0,0,0,1.631-2.7,9.816,9.816,0,0,0,0-6.616,8.068,8.068,0,0,0-1.631-2.7,8.011,8.011,0,0,0-11.722,0,8.051,8.051,0,0,0-1.631,2.7,9.814,9.814,0,0,0,0,6.616,8.042,8.042,0,0,0,1.631,2.7,7.773,7.773,0,0,0,5.861,2.507Z" transform="translate(-858.116 -1428.267)" fill="#fff"/>
    </g>
    <path id="Path_9610" data-name="Path 9610" d="M224.734,1383.843s-1.578.591-1.877.3.219-4.053,3.71-2.153a2.832,2.832,0,0,1,.341,3.925,4.809,4.809,0,0,1-4.754,2.353,4.69,4.69,0,0,1-3.86-3.029,6.236,6.236,0,0,1,.972-5.394,7.393,7.393,0,0,1,5-2.71,8.49,8.49,0,0,1,5.629,1.731,7.155,7.155,0,0,1,2.132,5.192c-.128,2.279-1.749,6.078-3.412,7.049,0,0-3.881,2.744-7.847,1.73s-6.755-5.234-7.061-6.454c-.311-1.24-.316-5.871,1.006-7.9s2.345-5.276,9.553-6.922a13.826,13.826,0,0,1,3.71-.211c2.687.084-5.331-2.786-10.405-.422s-6.61,5.656-6.61,5.656a16.731,16.731,0,0,0-2.047,8.864,15.414,15.414,0,0,0,3.8,8.189s4.392,4.094,10.235,4.01a15.881,15.881,0,0,0,9.936-4.094,14.5,14.5,0,0,0,3.8-8.231,12.11,12.11,0,0,0-2.772-8.315c-1.242-1.693-4.641-3.713-9.3-3.377-4.786.346-7.591,4.939-7.591,4.939s-2.9,5.191-.512,8.652a7.176,7.176,0,0,0,5.544,3.419s3.668.549,5.885-1.772,2.388-5.192,1.706-6.458a5.783,5.783,0,0,0-4.392-3.081c-2.218-.211-4.179,1.308-4.478,2.448s-.469,3.714,1.322,4.221A1.99,1.99,0,0,0,224.734,1383.843Z" transform="translate(10552.176 -5442.972)" fill="#fff"/>
  </g>
</svg>
