<svg xmlns="http://www.w3.org/2000/svg" width="170.59" height="39.5" viewBox="0 0 170.59 39.5">
  <g id="Group_55" data-name="Group 55" transform="translate(-10700.134 4094.193)">
    <g id="Group_54" data-name="Group 54" transform="translate(10747.881 -4085.045)">
      <path id="Path_9603" data-name="Path 9603" d="M431.865,1444.741a4.494,4.494,0,0,0,1.9,1.639,5.664,5.664,0,0,0,2.38.527,4.844,4.844,0,0,0,1.4-.214,4.243,4.243,0,0,0,1.3-.641,3.5,3.5,0,0,0,.955-1.055,2.806,2.806,0,0,0,.371-1.454,2.179,2.179,0,0,0-.741-1.781,6.407,6.407,0,0,0-1.838-1.026q-1.1-.413-2.394-.8a9.731,9.731,0,0,1-2.394-1.069,5.854,5.854,0,0,1-1.838-1.839,5.721,5.721,0,0,1-.741-3.121,5.38,5.38,0,0,1,1.6-3.705,6.674,6.674,0,0,1,2.123-1.382,7.9,7.9,0,0,1,3.121-.556,10.9,10.9,0,0,1,3.164.456,5.44,5.44,0,0,1,2.651,1.853l-2.223,2.024a3.691,3.691,0,0,0-1.454-1.282,4.6,4.6,0,0,0-2.138-.485,5.182,5.182,0,0,0-1.9.3,3.4,3.4,0,0,0-1.211.77,2.715,2.715,0,0,0-.641,1.012,3.091,3.091,0,0,0-.185,1,2.542,2.542,0,0,0,.741,1.967,5.758,5.758,0,0,0,1.838,1.112,22.238,22.238,0,0,0,2.394.77,10.261,10.261,0,0,1,2.394.955,5.575,5.575,0,0,1,1.838,1.653,4.863,4.863,0,0,1,.741,2.864,6.029,6.029,0,0,1-.556,2.622,5.815,5.815,0,0,1-1.5,1.967,6.636,6.636,0,0,1-2.223,1.226,8.6,8.6,0,0,1-2.736.427,9.943,9.943,0,0,1-3.677-.684,6.04,6.04,0,0,1-2.765-2.109Z" transform="translate(-429.614 -1428.267)" fill="#020202"/>
      <path id="Path_9604" data-name="Path 9604" d="M525.132,1468.323a5.4,5.4,0,0,0-1.5-1.126,4.2,4.2,0,0,0-1.867-.385,4.126,4.126,0,0,0-1.838.385,3.743,3.743,0,0,0-1.311,1.055,4.734,4.734,0,0,0-.8,1.539,6.041,6.041,0,0,0-.271,1.81,5.045,5.045,0,0,0,.314,1.781,4.476,4.476,0,0,0,.883,1.468,4.06,4.06,0,0,0,1.368.983,4.356,4.356,0,0,0,1.8.356,4.1,4.1,0,0,0,1.853-.385,4.743,4.743,0,0,0,1.425-1.126l1.824,1.824a5.741,5.741,0,0,1-2.323,1.6,8.119,8.119,0,0,1-2.807.484,7.718,7.718,0,0,1-2.864-.513,6.611,6.611,0,0,1-2.237-1.439,6.351,6.351,0,0,1-1.454-2.223,7.721,7.721,0,0,1-.513-2.864,7.838,7.838,0,0,1,.513-2.879,6.423,6.423,0,0,1,3.662-3.719,7.617,7.617,0,0,1,2.893-.527,7.75,7.75,0,0,1,2.836.527,6.251,6.251,0,0,1,2.351,1.61Z" transform="translate(-498.625 -1457.549)" fill="#020202"/>
      <path id="Path_9605" data-name="Path 9605" d="M587.826,1466.262a7.14,7.14,0,0,1,2.508-1.5,8.587,8.587,0,0,1,2.85-.5,7.819,7.819,0,0,1,2.551.371,4.959,4.959,0,0,1,1.753,1,3.94,3.94,0,0,1,1.012,1.44,4.5,4.5,0,0,1,.328,1.7v6.9q0,.713.029,1.312t.085,1.14h-2.28q-.086-1.027-.086-2.052h-.057a4.909,4.909,0,0,1-2.024,1.852,6.382,6.382,0,0,1-2.708.542,6.216,6.216,0,0,1-1.8-.256,4.374,4.374,0,0,1-1.5-.77,3.664,3.664,0,0,1-1.012-1.268,4.377,4.377,0,0,1,.214-3.947,4.424,4.424,0,0,1,1.6-1.44,7.7,7.7,0,0,1,2.366-.8,16.422,16.422,0,0,1,2.893-.242h1.881v-.57a2.818,2.818,0,0,0-.2-1.026,2.778,2.778,0,0,0-.6-.927,2.855,2.855,0,0,0-1-.655,3.788,3.788,0,0,0-1.425-.242,5.252,5.252,0,0,0-1.3.143,5.725,5.725,0,0,0-1.012.356,4.428,4.428,0,0,0-.827.5q-.371.285-.713.542Zm7.239,5.358a17.949,17.949,0,0,0-1.867.1,7.323,7.323,0,0,0-1.739.385,3.348,3.348,0,0,0-1.283.8,1.8,1.8,0,0,0-.5,1.311,1.858,1.858,0,0,0,.784,1.682,3.838,3.838,0,0,0,2.123.513,4.111,4.111,0,0,0,1.8-.356,3.37,3.37,0,0,0,1.2-.926,3.6,3.6,0,0,0,.656-1.268,5.025,5.025,0,0,0,.2-1.382v-.855Z" transform="translate(-557.186 -1457.426)" fill="#020202"/>
      <path id="Path_9606" data-name="Path 9606" d="M668.413,1464.609h2.565v2.08h.057a3.783,3.783,0,0,1,1.682-1.753,5.569,5.569,0,0,1,2.765-.67,5.866,5.866,0,0,1,1.867.3,4.214,4.214,0,0,1,1.568.926,4.472,4.472,0,0,1,1.069,1.61,6.162,6.162,0,0,1,.4,2.323v8.693h-2.565v-7.98a4.507,4.507,0,0,0-.257-1.61,2.944,2.944,0,0,0-.684-1.083,2.574,2.574,0,0,0-.983-.6,3.631,3.631,0,0,0-1.155-.185,4.188,4.188,0,0,0-1.482.256,3.09,3.09,0,0,0-1.2.812,3.826,3.826,0,0,0-.8,1.411,6.419,6.419,0,0,0-.285,2.024v6.954h-2.565Z" transform="translate(-623.038 -1457.426)" fill="#020202"/>
      <path id="Path_9607" data-name="Path 9607" d="M752.863,1430.968h7.04a13.055,13.055,0,0,1,3.748.484,10,10,0,0,1,2.793,1.3,8.235,8.235,0,0,1,1.967,1.867,10.021,10.021,0,0,1,1.24,2.166,10.973,10.973,0,0,1,.656,2.223,11.705,11.705,0,0,1,.2,2.052,10.146,10.146,0,0,1-.712,3.748,9.472,9.472,0,0,1-2.109,3.221,10.388,10.388,0,0,1-3.463,2.266,12.412,12.412,0,0,1-4.774.855h-6.584Zm2.736,17.614h3.449a11.306,11.306,0,0,0,3.292-.47,7.978,7.978,0,0,0,2.722-1.411,6.751,6.751,0,0,0,1.853-2.351,7.465,7.465,0,0,0,.684-3.292,9.838,9.838,0,0,0-.314-2.266,6.793,6.793,0,0,0-1.183-2.465,7.013,7.013,0,0,0-2.408-1.981,8.534,8.534,0,0,0-3.99-.812h-4.1Z" transform="translate(-691.442 -1430.455)" fill="#020202"/>
      <path id="Path_9608" data-name="Path 9608" d="M861.805,1430.968h2.48l8.636,20.179h-3.192l-2.024-4.988H858.1l-2,4.988h-3.192Zm4.9,12.8-3.762-9.263h-.057l-3.819,9.263Z" transform="translate(-772.481 -1430.455)" fill="#020202"/>
      <path id="Path_9609" data-name="Path 9609" d="M975.929,1449.472a10.877,10.877,0,0,1-4.247-.812,9.883,9.883,0,0,1-3.321-2.238,10.324,10.324,0,0,1-2.166-3.363,11.589,11.589,0,0,1,0-8.38,10.334,10.334,0,0,1,2.166-3.363,9.883,9.883,0,0,1,3.321-2.238,11.508,11.508,0,0,1,8.493,0,9.89,9.89,0,0,1,3.32,2.238,10.353,10.353,0,0,1,2.166,3.363,11.591,11.591,0,0,1,0,8.38,10.343,10.343,0,0,1-2.166,3.363,9.889,9.889,0,0,1-3.32,2.238A10.878,10.878,0,0,1,975.929,1449.472Zm0-2.565a7.333,7.333,0,0,0,5.529-2.366,7.6,7.6,0,0,0,1.539-2.551,9.261,9.261,0,0,0,0-6.242,7.611,7.611,0,0,0-1.539-2.551,7.558,7.558,0,0,0-11.059,0,7.594,7.594,0,0,0-1.539,2.551,9.259,9.259,0,0,0,0,6.242,7.587,7.587,0,0,0,1.539,2.551,7.334,7.334,0,0,0,5.53,2.366Z" transform="translate(-863.604 -1428.267)" fill="#020202"/>
    </g>
    <path id="Path_9610" data-name="Path 9610" d="M231.532,1389.775s-2.254.844-2.68.422.312-5.789,5.3-3.075c0,0,2.741,2.17.487,5.607s-4.827,3.361-6.791,3.361c-2.238,0-4.951-2.287-5.513-4.326-.548-1.99-.56-5.413,1.389-7.7a10.559,10.559,0,0,1,7.139-3.871,12.127,12.127,0,0,1,8.04,2.472,10.22,10.22,0,0,1,3.046,7.416c-.183,3.255-2.5,8.681-4.873,10.068,0,0-5.543,3.919-11.208,2.472s-9.648-7.476-10.086-9.218c-.445-1.771-.452-8.385,1.436-11.279s3.35-7.536,13.644-9.887a19.757,19.757,0,0,1,5.3-.3c3.838.12-7.614-3.979-14.862-.6s-9.441,8.078-9.441,8.078-3.533,6.029-2.924,12.66,5.421,11.7,5.421,11.7,6.274,5.848,14.618,5.727,14.192-5.848,14.192-5.848,5-5.075,5.421-11.756a17.3,17.3,0,0,0-3.959-11.876c-1.775-2.419-6.629-5.3-13.278-4.823-6.836.494-10.842,7.054-10.842,7.054s-4.142,7.415-.731,12.359,7.918,4.883,7.918,4.883,5.238.784,8.406-2.532,3.411-7.415,2.436-9.224a8.26,8.26,0,0,0-6.274-4.4c-3.167-.3-5.969,1.868-6.4,3.5s-.67,5.305,1.888,6.029A2.843,2.843,0,0,0,231.532,1389.775Z" transform="translate(10491.271 -5464.184)" fill="#020202"/>
  </g>
</svg>
