<svg xmlns="http://www.w3.org/2000/svg" width="16.25" height="16.58" viewBox="0 0 16.25 16.58">
  <g id="Group_52" data-name="Group 52" transform="translate(-10650 4327)">
    <path id="Path_9566" data-name="Path 9566" d="M16.322,9.6l-.334-.177a5.777,5.777,0,0,0,0-2.273l.334-.177a1.984,1.984,0,0,0,.828-2.832,2.372,2.372,0,0,0-3.085-.76l-.335.178a6.916,6.916,0,0,0-2.144-1.134V2.072A2.171,2.171,0,0,0,9.328,0,2.171,2.171,0,0,0,7.07,2.072v.354A6.933,6.933,0,0,0,4.927,3.564l-.336-.179a2.372,2.372,0,0,0-3.085.76,1.984,1.984,0,0,0,.828,2.832h0l.334.177a5.777,5.777,0,0,0,0,2.273L2.333,9.6a1.984,1.984,0,0,0-.828,2.832,2.372,2.372,0,0,0,3.085.76h0l.335-.178A6.928,6.928,0,0,0,7.07,14.153v.354A2.171,2.171,0,0,0,9.328,16.58a2.171,2.171,0,0,0,2.258-2.073v-.354a6.933,6.933,0,0,0,2.143-1.137l.336.178a2.372,2.372,0,0,0,3.085-.76A1.984,1.984,0,0,0,16.323,9.6h0ZM14.4,6.994a4.48,4.48,0,0,1,0,2.591.668.668,0,0,0,.349.783l.816.432a.661.661,0,0,1,.276.944A.791.791,0,0,1,14.817,12h0L14,11.563a.8.8,0,0,0-.914.114,5.377,5.377,0,0,1-2.44,1.3.7.7,0,0,0-.565.669v.866a.755.755,0,0,1-1.505,0v-.865a.7.7,0,0,0-.565-.669,5.375,5.375,0,0,1-2.44-1.3.8.8,0,0,0-.914-.114l-.816.433a.791.791,0,0,1-1.029-.247.659.659,0,0,1,.269-.945l.008,0,.816-.432a.668.668,0,0,0,.349-.783,4.48,4.48,0,0,1,0-2.591.669.669,0,0,0-.35-.78L3.087,5.78a.66.66,0,0,1-.275-.944.79.79,0,0,1,1.028-.254l.817.434A.8.8,0,0,0,5.57,4.9a5.377,5.377,0,0,1,2.44-1.3.7.7,0,0,0,.565-.672V2.072a.755.755,0,0,1,1.505,0v.865a.7.7,0,0,0,.565.669,5.381,5.381,0,0,1,2.44,1.3A.8.8,0,0,0,14,5.019l.816-.433a.79.79,0,0,1,1.029.247.66.66,0,0,1-.268.945l-.009,0-.816.432a.668.668,0,0,0-.348.78Z" transform="translate(10648.797 -4327)" fill="#fff"/>
    <path id="Path_9567" data-name="Path 9567" d="M21.285-10.7A2.619,2.619,0,0,0,18.642-8.1a2.619,2.619,0,0,0,2.643,2.6,2.619,2.619,0,0,0,2.643-2.6A2.619,2.619,0,0,0,21.285-10.7Zm0,3.892a1.31,1.31,0,0,1-1.322-1.3,1.31,1.31,0,0,1,1.322-1.3,1.31,1.31,0,0,1,1.322,1.3A1.31,1.31,0,0,1,21.285-6.8Z" transform="translate(10636.84 -4310.608)" fill="#fff"/>
  </g>
</svg>
