<svg xmlns="http://www.w3.org/2000/svg" width="28.14" height="25.592" viewBox="0 0 28.14 25.592">
  <g id="surface1" transform="translate(-1.921 -3.83)">
    <path id="Path_9573" data-name="Path 9573" d="M28.4,3.832a2.7,2.7,0,0,0-.891.211c-.27.105-1.828.773-4.133,1.758L15.117,9.336C9.184,11.879,3.352,14.383,3.352,14.383l.043-.02a3.26,3.26,0,0,0-.707.367,1.946,1.946,0,0,0-.527.52,1.363,1.363,0,0,0-.23.918,2.019,2.019,0,0,0,1.43,1.578l0,0,5.7,1.949c.145.484,1.727,5.77,2.074,6.887A3.8,3.8,0,0,0,11.7,27.8a1.21,1.21,0,0,0,.3.285.843.843,0,0,0,.133.066h0s.008,0,.016,0l-.016,0c.012,0,.02.012.031.016a.221.221,0,0,0,.059.012,1.334,1.334,0,0,0,1.191-.2l.023-.016,3.5-3.246,5.68,4.43.07.031a2.3,2.3,0,0,0,2.391-.211,2.407,2.407,0,0,0,.7-.926L25.8,28,29.973,6.242a2.725,2.725,0,0,0,.02-1.289,1.484,1.484,0,0,0-.652-.895A1.621,1.621,0,0,0,28.4,3.832Zm.031,1.3a.513.513,0,0,1,.25.027c.031.016.043.016.074.121a1.6,1.6,0,0,1-.035.688l0,.008L24.57,27.6a1.105,1.105,0,0,1-.293.383c-.2.164-.426.293-1.02.043l-6.211-4.844-.176-.137,0,0-1.859-1.395L25.449,9.375a.64.64,0,0,0-.5-1.055.657.657,0,0,0-.34.105L9.5,18.5,3.793,16.543s-.566-.316-.594-.535c0-.012-.008,0,.023-.043a.75.75,0,0,1,.2-.184,1.956,1.956,0,0,1,.4-.207l.02-.008.023-.008s5.828-2.5,11.762-5.043c2.969-1.273,5.961-2.555,8.262-3.539s3.965-1.691,4.105-1.746A1.3,1.3,0,0,1,28.434,5.133Zm-6.922,6.895L13.6,21.34l0,0-.035.047c-.012.02-.023.035-.035.055a.618.618,0,0,0-.086.246v0l-1.031,4.637c-.016-.047-.027-.066-.047-.125v0c-.328-1.051-1.82-6.031-2.027-6.723Zm-7.023,10.84,1.426,1.066-2.09,1.938Zm0,0" fill="#fff"/>
  </g>
</svg>
