<svg xmlns="http://www.w3.org/2000/svg" width="18.922" height="15.383" viewBox="0 0 18.922 15.383">
  <g id="surface1" transform="translate(-0.781 -2.289)">
    <path id="Path_9574" data-name="Path 9574" d="M19.7,4.113a7.892,7.892,0,0,1-2.23.613A3.9,3.9,0,0,0,19.18,2.578a7.84,7.84,0,0,1-2.465.941,3.88,3.88,0,0,0-6.371,1.055A3.856,3.856,0,0,0,10.1,7.059,10.958,10.958,0,0,1,5.668,5.883,11.046,11.046,0,0,1,2.1,3,3.884,3.884,0,0,0,3.3,8.188,3.856,3.856,0,0,1,1.543,7.7V7.75a3.877,3.877,0,0,0,3.113,3.809,3.969,3.969,0,0,1-1.754.066,3.887,3.887,0,0,0,3.625,2.7,7.78,7.78,0,0,1-4.82,1.66,7.359,7.359,0,0,1-.926-.055A10.933,10.933,0,0,0,6.73,17.672,10.971,10.971,0,0,0,17.777,6.625c0-.164,0-.332-.012-.5A7.939,7.939,0,0,0,19.7,4.117Zm0,0" fill="#fff"/>
  </g>
</svg>
